<svg id="visual" viewBox="0 0 1920 1080" width="1920" height="1080" xmlns="http://www.w3.org/2000/svg" xmlns:xlink="http://www.w3.org/1999/xlink" version="1.1"><g stroke-width="1" stroke-linejoin="bevel"><path d="M980 474.9L1135 591.1L1126 476.9Z" fill="#202037" stroke="#2e2e3e"></path><path d="M980 474.9L976 633.1L1135 591.1Z" fill="#191a30" stroke="#2e2e3e"></path><path d="M1135 591.1L1259 482.9L1126 476.9Z" fill="#05011e" stroke="#2e2e3e"></path><path d="M976 633.1L979 754.4L1135 591.1Z" fill="#13142a" stroke="#2e2e3e"></path><path d="M1135 591.1L1284 615.1L1259 482.9Z" fill="#202037" stroke="#2e2e3e"></path><path d="M1135 795.4L1284 615.1L1135 591.1Z" fill="#16172d" stroke="#2e2e3e"></path><path d="M980 474.9L822 637.1L976 633.1Z" fill="#0e0c24" stroke="#2e2e3e"></path><path d="M976 633.1L821 745.4L979 754.4Z" fill="#23233a" stroke="#2e2e3e"></path><path d="M958 294.6L803 471.9L980 474.9Z" fill="#23233a" stroke="#2e2e3e"></path><path d="M980 474.9L803 471.9L822 637.1Z" fill="#05011e" stroke="#2e2e3e"></path><path d="M1116 283.6L980 474.9L1126 476.9Z" fill="#0e0c24" stroke="#2e2e3e"></path><path d="M1116 283.6L958 294.6L980 474.9Z" fill="#16172d" stroke="#2e2e3e"></path><path d="M1259 335.6L1116 283.6L1126 476.9Z" fill="#1d1d34" stroke="#2e2e3e"></path><path d="M979 754.4L1135 795.4L1135 591.1Z" fill="#13142a" stroke="#2e2e3e"></path><path d="M1416 446.9L1259 335.6L1259 482.9Z" fill="#0a0721" stroke="#2e2e3e"></path><path d="M1259 482.9L1259 335.6L1126 476.9Z" fill="#0a0721" stroke="#2e2e3e"></path><path d="M655 789.4L821 745.4L822 637.1Z" fill="#13142a" stroke="#2e2e3e"></path><path d="M822 637.1L821 745.4L976 633.1Z" fill="#16172d" stroke="#2e2e3e"></path><path d="M979 754.4L1113 910.7L1135 795.4Z" fill="#000000" stroke="#2e2e3e"></path><path d="M1135 795.4L1299 778.4L1284 615.1Z" fill="#191a30" stroke="#2e2e3e"></path><path d="M1284 615.1L1416 446.9L1259 482.9Z" fill="#13142a" stroke="#2e2e3e"></path><path d="M958 294.6L775 328.6L803 471.9Z" fill="#000000" stroke="#2e2e3e"></path><path d="M803 471.9L642 594.1L822 637.1Z" fill="#1d1d34" stroke="#2e2e3e"></path><path d="M821 745.4L943 897.7L979 754.4Z" fill="#13142a" stroke="#2e2e3e"></path><path d="M1135 795.4L1277 903.7L1299 778.4Z" fill="#111027" stroke="#2e2e3e"></path><path d="M1096 167.3L974 173.3L1116 283.6Z" fill="#23233a" stroke="#2e2e3e"></path><path d="M1116 283.6L974 173.3L958 294.6Z" fill="#23233a" stroke="#2e2e3e"></path><path d="M958 294.6L826 135.3L775 328.6Z" fill="#000000" stroke="#2e2e3e"></path><path d="M1294 172.3L1096 167.3L1116 283.6Z" fill="#191a30" stroke="#2e2e3e"></path><path d="M943 897.7L1113 910.7L979 754.4Z" fill="#23233a" stroke="#2e2e3e"></path><path d="M1425 636.1L1416 446.9L1284 615.1Z" fill="#191a30" stroke="#2e2e3e"></path><path d="M1259 335.6L1294 172.3L1116 283.6Z" fill="#111027" stroke="#2e2e3e"></path><path d="M1299 778.4L1425 636.1L1284 615.1Z" fill="#23233a" stroke="#2e2e3e"></path><path d="M624 489.9L642 594.1L803 471.9Z" fill="#23233a" stroke="#2e2e3e"></path><path d="M821 745.4L781 937.7L943 897.7Z" fill="#0e0c24" stroke="#2e2e3e"></path><path d="M1113 910.7L1277 903.7L1135 795.4Z" fill="#13142a" stroke="#2e2e3e"></path><path d="M1299 778.4L1440 785.4L1425 636.1Z" fill="#0a0721" stroke="#2e2e3e"></path><path d="M775 328.6L624 489.9L803 471.9Z" fill="#111027" stroke="#2e2e3e"></path><path d="M1582 468.9L1433 327.6L1416 446.9Z" fill="#0a0721" stroke="#2e2e3e"></path><path d="M1416 446.9L1433 327.6L1259 335.6Z" fill="#0a0721" stroke="#2e2e3e"></path><path d="M1433 327.6L1294 172.3L1259 335.6Z" fill="#111027" stroke="#2e2e3e"></path><path d="M1277 903.7L1440 785.4L1299 778.4Z" fill="#23233a" stroke="#2e2e3e"></path><path d="M1425 636.1L1582 468.9L1416 446.9Z" fill="#13142a" stroke="#2e2e3e"></path><path d="M974 173.3L826 135.3L958 294.6Z" fill="#000000" stroke="#2e2e3e"></path><path d="M775 328.6L618 297.6L624 489.9Z" fill="#05011e" stroke="#2e2e3e"></path><path d="M964 0L826 135.3L974 173.3Z" fill="#202037" stroke="#2e2e3e"></path><path d="M964 0L974 173.3L1096 167.3Z" fill="#111027" stroke="#2e2e3e"></path><path d="M460 748.4L655 789.4L642 594.1Z" fill="#16172d" stroke="#2e2e3e"></path><path d="M642 594.1L655 789.4L822 637.1Z" fill="#000000" stroke="#2e2e3e"></path><path d="M655 789.4L781 937.7L821 745.4Z" fill="#05011e" stroke="#2e2e3e"></path><path d="M965 1080L1103 1080L1113 910.7Z" fill="#23233a" stroke="#2e2e3e"></path><path d="M1113 910.7L1260 1080L1277 903.7Z" fill="#000000" stroke="#2e2e3e"></path><path d="M619 131.3L618 297.6L775 328.6Z" fill="#1d1d34" stroke="#2e2e3e"></path><path d="M1581 619.1L1582 468.9L1425 636.1Z" fill="#13142a" stroke="#2e2e3e"></path><path d="M1433 327.6L1446 142.3L1294 172.3Z" fill="#0e0c24" stroke="#2e2e3e"></path><path d="M1576 777.4L1581 619.1L1425 636.1Z" fill="#05011e" stroke="#2e2e3e"></path><path d="M965 1080L1113 910.7L943 897.7Z" fill="#23233a" stroke="#2e2e3e"></path><path d="M1277 903.7L1438 933.7L1440 785.4Z" fill="#000000" stroke="#2e2e3e"></path><path d="M1281 0L1107 0L1096 167.3Z" fill="#0a0721" stroke="#2e2e3e"></path><path d="M802 1080L965 1080L943 897.7Z" fill="#05011e" stroke="#2e2e3e"></path><path d="M1107 0L964 0L1096 167.3Z" fill="#05011e" stroke="#2e2e3e"></path><path d="M503 177.3L507 311.6L618 297.6Z" fill="#23233a" stroke="#2e2e3e"></path><path d="M618 297.6L507 475.9L624 489.9Z" fill="#000000" stroke="#2e2e3e"></path><path d="M624 489.9L507 475.9L642 594.1Z" fill="#0a0721" stroke="#2e2e3e"></path><path d="M1420 1080L1438 933.7L1277 903.7Z" fill="#1d1d34" stroke="#2e2e3e"></path><path d="M1440 785.4L1576 777.4L1425 636.1Z" fill="#23233a" stroke="#2e2e3e"></path><path d="M1605 289.6L1446 142.3L1433 327.6Z" fill="#202037" stroke="#2e2e3e"></path><path d="M1294 172.3L1281 0L1096 167.3Z" fill="#000000" stroke="#2e2e3e"></path><path d="M1592 910.7L1576 777.4L1440 785.4Z" fill="#111027" stroke="#2e2e3e"></path><path d="M1103 1080L1260 1080L1113 910.7Z" fill="#202037" stroke="#2e2e3e"></path><path d="M1446 142.3L1281 0L1294 172.3Z" fill="#202037" stroke="#2e2e3e"></path><path d="M507 475.9L469 625.1L642 594.1Z" fill="#000000" stroke="#2e2e3e"></path><path d="M663 1080L802 1080L781 937.7Z" fill="#1d1d34" stroke="#2e2e3e"></path><path d="M618 297.6L507 311.6L507 475.9Z" fill="#05011e" stroke="#2e2e3e"></path><path d="M301 476.9L306 623.1L469 625.1Z" fill="#000000" stroke="#2e2e3e"></path><path d="M619 131.3L775 328.6L826 135.3Z" fill="#23233a" stroke="#2e2e3e"></path><path d="M614 944.7L781 937.7L655 789.4Z" fill="#111027" stroke="#2e2e3e"></path><path d="M781 937.7L802 1080L943 897.7Z" fill="#1d1d34" stroke="#2e2e3e"></path><path d="M780 0L619 131.3L826 135.3Z" fill="#202037" stroke="#2e2e3e"></path><path d="M472 944.7L614 944.7L655 789.4Z" fill="#000000" stroke="#2e2e3e"></path><path d="M964 0L780 0L826 135.3Z" fill="#202037" stroke="#2e2e3e"></path><path d="M1582 468.9L1605 289.6L1433 327.6Z" fill="#13142a" stroke="#2e2e3e"></path><path d="M1761 450.9L1605 289.6L1582 468.9Z" fill="#0e0c24" stroke="#2e2e3e"></path><path d="M1761 450.9L1582 468.9L1778 617.1Z" fill="#13142a" stroke="#2e2e3e"></path><path d="M469 625.1L460 748.4L642 594.1Z" fill="#000000" stroke="#2e2e3e"></path><path d="M1260 1080L1420 1080L1277 903.7Z" fill="#13142a" stroke="#2e2e3e"></path><path d="M1438 933.7L1592 910.7L1440 785.4Z" fill="#0a0721" stroke="#2e2e3e"></path><path d="M1588 1080L1592 910.7L1438 933.7Z" fill="#23233a" stroke="#2e2e3e"></path><path d="M1778 617.1L1582 468.9L1581 619.1Z" fill="#191a30" stroke="#2e2e3e"></path><path d="M452 0L503 177.3L619 131.3Z" fill="#23233a" stroke="#2e2e3e"></path><path d="M619 131.3L503 177.3L618 297.6Z" fill="#202037" stroke="#2e2e3e"></path><path d="M301 476.9L469 625.1L507 475.9Z" fill="#202037" stroke="#2e2e3e"></path><path d="M458 1080L663 1080L614 944.7Z" fill="#23233a" stroke="#2e2e3e"></path><path d="M614 944.7L663 1080L781 937.7Z" fill="#16172d" stroke="#2e2e3e"></path><path d="M780 0L644 0L619 131.3Z" fill="#23233a" stroke="#2e2e3e"></path><path d="M1446 142.3L1464 0L1281 0Z" fill="#191a30" stroke="#2e2e3e"></path><path d="M1588 0L1464 0L1446 142.3Z" fill="#111027" stroke="#2e2e3e"></path><path d="M460 748.4L472 944.7L655 789.4Z" fill="#0a0721" stroke="#2e2e3e"></path><path d="M1733 288.6L1627 127.3L1605 289.6Z" fill="#05011e" stroke="#2e2e3e"></path><path d="M1605 289.6L1627 127.3L1446 142.3Z" fill="#16172d" stroke="#2e2e3e"></path><path d="M1778 617.1L1581 619.1L1576 777.4Z" fill="#1d1d34" stroke="#2e2e3e"></path><path d="M1761 450.9L1733 288.6L1605 289.6Z" fill="#0a0721" stroke="#2e2e3e"></path><path d="M1771 796.4L1778 617.1L1576 777.4Z" fill="#1d1d34" stroke="#2e2e3e"></path><path d="M469 625.1L306 623.1L460 748.4Z" fill="#0a0721" stroke="#2e2e3e"></path><path d="M460 748.4L334 789.4L472 944.7Z" fill="#0e0c24" stroke="#2e2e3e"></path><path d="M301 476.9L507 475.9L507 311.6Z" fill="#1d1d34" stroke="#2e2e3e"></path><path d="M320 290.6L301 476.9L507 311.6Z" fill="#000000" stroke="#2e2e3e"></path><path d="M306 623.1L334 789.4L460 748.4Z" fill="#0a0721" stroke="#2e2e3e"></path><path d="M1420 1080L1588 1080L1438 933.7Z" fill="#16172d" stroke="#2e2e3e"></path><path d="M1592 910.7L1771 796.4L1576 777.4Z" fill="#05011e" stroke="#2e2e3e"></path><path d="M1786 0L1588 0L1627 127.3Z" fill="#1d1d34" stroke="#2e2e3e"></path><path d="M1627 127.3L1588 0L1446 142.3Z" fill="#05011e" stroke="#2e2e3e"></path><path d="M1752 922.7L1771 796.4L1592 910.7Z" fill="#202037" stroke="#2e2e3e"></path><path d="M503 177.3L320 290.6L507 311.6Z" fill="#111027" stroke="#2e2e3e"></path><path d="M304 146.3L320 290.6L503 177.3Z" fill="#191a30" stroke="#2e2e3e"></path><path d="M1588 1080L1752 922.7L1592 910.7Z" fill="#111027" stroke="#2e2e3e"></path><path d="M307 1080L458 1080L472 944.7Z" fill="#0a0721" stroke="#2e2e3e"></path><path d="M472 944.7L458 1080L614 944.7Z" fill="#16172d" stroke="#2e2e3e"></path><path d="M644 0L452 0L619 131.3Z" fill="#1d1d34" stroke="#2e2e3e"></path><path d="M1920 297.6L1780 138.3L1733 288.6Z" fill="#1d1d34" stroke="#2e2e3e"></path><path d="M1733 288.6L1780 138.3L1627 127.3Z" fill="#000000" stroke="#2e2e3e"></path><path d="M1920 297.6L1733 288.6L1761 450.9Z" fill="#191a30" stroke="#2e2e3e"></path><path d="M174 762.4L308 919.7L334 789.4Z" fill="#0a0721" stroke="#2e2e3e"></path><path d="M334 789.4L308 919.7L472 944.7Z" fill="#23233a" stroke="#2e2e3e"></path><path d="M174 762.4L334 789.4L306 623.1Z" fill="#111027" stroke="#2e2e3e"></path><path d="M320 290.6L171 326.6L301 476.9Z" fill="#05011e" stroke="#2e2e3e"></path><path d="M452 0L304 146.3L503 177.3Z" fill="#111027" stroke="#2e2e3e"></path><path d="M1920 599.1L1920 488.9L1778 617.1Z" fill="#202037" stroke="#2e2e3e"></path><path d="M1778 617.1L1920 488.9L1761 450.9Z" fill="#05011e" stroke="#2e2e3e"></path><path d="M1920 599.1L1778 617.1L1920 752.4Z" fill="#191a30" stroke="#2e2e3e"></path><path d="M1920 752.4L1778 617.1L1771 796.4Z" fill="#13142a" stroke="#2e2e3e"></path><path d="M1920 951.7L1920 752.4L1771 796.4Z" fill="#1d1d34" stroke="#2e2e3e"></path><path d="M1920 488.9L1920 297.6L1761 450.9Z" fill="#16172d" stroke="#2e2e3e"></path><path d="M452 0L325 0L304 146.3Z" fill="#000000" stroke="#2e2e3e"></path><path d="M144 589.1L174 762.4L306 623.1Z" fill="#13142a" stroke="#2e2e3e"></path><path d="M144 589.1L306 623.1L301 476.9Z" fill="#191a30" stroke="#2e2e3e"></path><path d="M171 326.6L320 290.6L304 146.3Z" fill="#13142a" stroke="#2e2e3e"></path><path d="M140 151.3L171 326.6L304 146.3Z" fill="#191a30" stroke="#2e2e3e"></path><path d="M135 435.9L144 589.1L301 476.9Z" fill="#23233a" stroke="#2e2e3e"></path><path d="M1920 0L1786 0L1780 138.3Z" fill="#202037" stroke="#2e2e3e"></path><path d="M1780 138.3L1786 0L1627 127.3Z" fill="#1d1d34" stroke="#2e2e3e"></path><path d="M1588 1080L1787 1080L1752 922.7Z" fill="#16172d" stroke="#2e2e3e"></path><path d="M1752 922.7L1920 951.7L1771 796.4Z" fill="#000000" stroke="#2e2e3e"></path><path d="M308 919.7L307 1080L472 944.7Z" fill="#13142a" stroke="#2e2e3e"></path><path d="M185 1080L307 1080L308 919.7Z" fill="#05011e" stroke="#2e2e3e"></path><path d="M171 326.6L135 435.9L301 476.9Z" fill="#05011e" stroke="#2e2e3e"></path><path d="M1920 297.6L1920 174.3L1780 138.3Z" fill="#0e0c24" stroke="#2e2e3e"></path><path d="M1787 1080L1920 951.7L1752 922.7Z" fill="#23233a" stroke="#2e2e3e"></path><path d="M0 787.4L165 938.7L174 762.4Z" fill="#0e0c24" stroke="#2e2e3e"></path><path d="M174 762.4L165 938.7L308 919.7Z" fill="#000000" stroke="#2e2e3e"></path><path d="M163 0L140 151.3L304 146.3Z" fill="#1d1d34" stroke="#2e2e3e"></path><path d="M0 324.6L0 446.9L135 435.9Z" fill="#111027" stroke="#2e2e3e"></path><path d="M165 938.7L185 1080L308 919.7Z" fill="#0e0c24" stroke="#2e2e3e"></path><path d="M1787 1080L1920 1080L1920 951.7Z" fill="#111027" stroke="#2e2e3e"></path><path d="M1920 174.3L1920 0L1780 138.3Z" fill="#0e0c24" stroke="#2e2e3e"></path><path d="M325 0L163 0L304 146.3Z" fill="#111027" stroke="#2e2e3e"></path><path d="M0 324.6L171 326.6L0 180.3Z" fill="#1d1d34" stroke="#2e2e3e"></path><path d="M0 324.6L135 435.9L171 326.6Z" fill="#16172d" stroke="#2e2e3e"></path><path d="M135 435.9L0 446.9L144 589.1Z" fill="#000000" stroke="#2e2e3e"></path><path d="M144 589.1L0 637.1L174 762.4Z" fill="#0a0721" stroke="#2e2e3e"></path><path d="M165 938.7L0 1080L185 1080Z" fill="#202037" stroke="#2e2e3e"></path><path d="M0 446.9L0 637.1L144 589.1Z" fill="#0e0c24" stroke="#2e2e3e"></path><path d="M0 180.3L171 326.6L140 151.3Z" fill="#1d1d34" stroke="#2e2e3e"></path><path d="M0 637.1L0 787.4L174 762.4Z" fill="#23233a" stroke="#2e2e3e"></path><path d="M0 0L0 180.3L140 151.3Z" fill="#05011e" stroke="#2e2e3e"></path><path d="M0 787.4L0 938.7L165 938.7Z" fill="#13142a" stroke="#2e2e3e"></path><path d="M0 938.7L0 1080L165 938.7Z" fill="#202037" stroke="#2e2e3e"></path><path d="M163 0L0 0L140 151.3Z" fill="#0a0721" stroke="#2e2e3e"></path></g></svg>